<svg width="680" height="120" viewBox="0 0 680 120" fill="none" xmlns="http://www.w3.org/2000/svg">
<g clip-path="url(#clip0_236_30)">
<path d="M55.776 34.464C55.776 35.744 55.424 36.928 54.72 38.016L34.656 66.72V90.144C34.656 91.808 34.112 93.216 33.024 94.368C31.936 95.456 30.624 96 29.088 96C27.488 96 26.112 95.456 24.96 94.368C23.872 93.216 23.328 91.808 23.328 90.144V65.376L3.36 38.88C2.208 37.344 1.632 35.84 1.632 34.368C1.632 32.704 2.272 31.328 3.552 30.24C4.896 29.088 6.304 28.512 7.776 28.512C9.568 28.512 11.136 29.408 12.48 31.2L29.376 54.528L45.216 31.392C46.56 29.472 48.16 28.512 50.016 28.512C51.552 28.512 52.896 29.088 54.048 30.24C55.2 31.392 55.776 32.8 55.776 34.464ZM123.68 62.4C123.68 68.736 122.272 74.56 119.456 79.872C116.64 85.12 112.736 89.28 107.744 92.352C102.816 95.424 97.2483 96.96 91.0403 96.96C84.8323 96.96 79.2323 95.424 74.2403 92.352C69.3123 89.28 65.4403 85.12 62.6243 79.872C59.8723 74.56 58.4963 68.736 58.4963 62.4C58.4963 56.064 59.8723 50.272 62.6243 45.024C65.4403 39.712 69.3123 35.52 74.2403 32.448C79.2323 29.376 84.8323 27.84 91.0403 27.84C97.2483 27.84 102.816 29.376 107.744 32.448C112.736 35.52 116.64 39.712 119.456 45.024C122.272 50.272 123.68 56.064 123.68 62.4ZM111.2 62.4C111.2 58.112 110.336 54.24 108.608 50.784C106.88 47.264 104.48 44.48 101.408 42.432C98.3363 40.384 94.8803 39.36 91.0403 39.36C87.1363 39.36 83.6483 40.384 80.5763 42.432C77.5683 44.416 75.2003 47.168 73.4723 50.688C71.8083 54.208 70.9763 58.112 70.9763 62.4C70.9763 66.688 71.8083 70.592 73.4723 74.112C75.2003 77.632 77.5683 80.416 80.5763 82.464C83.6483 84.448 87.1363 85.44 91.0403 85.44C94.8803 85.44 98.3363 84.416 101.408 82.368C104.48 80.32 106.88 77.568 108.608 74.112C110.336 70.592 111.2 66.688 111.2 62.4ZM182.412 28.704C184.076 28.704 185.42 29.248 186.444 30.336C187.468 31.424 187.98 32.832 187.98 34.56V69.312C187.98 74.624 186.86 79.328 184.62 83.424C182.38 87.52 179.244 90.72 175.212 93.024C171.18 95.328 166.572 96.48 161.388 96.48C156.204 96.48 151.564 95.328 147.468 93.024C143.436 90.72 140.3 87.52 138.06 83.424C135.82 79.328 134.7 74.624 134.7 69.312V34.56C134.7 32.896 135.276 31.52 136.428 30.432C137.58 29.28 139.052 28.704 140.844 28.704C142.38 28.704 143.724 29.28 144.876 30.432C146.028 31.52 146.604 32.896 146.604 34.56V69.312C146.604 72.384 147.276 75.136 148.62 77.568C149.964 79.936 151.756 81.76 153.996 83.04C156.3 84.32 158.764 84.96 161.388 84.96C164.14 84.96 166.7 84.32 169.068 83.04C171.5 81.76 173.42 79.936 174.828 77.568C176.3 75.136 177.036 72.384 177.036 69.312V34.56C177.036 32.832 177.516 31.424 178.476 30.336C179.436 29.248 180.748 28.704 182.412 28.704ZM548.27 74.784C546.094 74.784 544.91 73.568 544.718 71.136L541.934 35.808C541.806 33.824 542.318 32.16 543.47 30.816C544.686 29.472 546.254 28.8 548.174 28.8C550.094 28.8 551.662 29.472 552.878 30.816C554.094 32.16 554.606 33.824 554.414 35.808L551.726 71.136C551.534 73.568 550.382 74.784 548.27 74.784ZM547.598 96C545.742 96 544.302 95.52 543.278 94.56C542.318 93.536 541.838 92.096 541.838 90.24V88.608C541.838 86.752 542.318 85.344 543.278 84.384C544.302 83.36 545.742 82.848 547.598 82.848H548.846C550.702 82.848 552.11 83.36 553.07 84.384C554.094 85.344 554.606 86.752 554.606 88.608V90.24C554.606 92.096 554.094 93.536 553.07 94.56C552.11 95.52 550.702 96 548.846 96H547.598Z" fill="#5C76F7"/>
<path d="M253.364 28.8C254.9 28.8 256.148 29.312 257.108 30.336C258.068 31.36 258.548 32.64 258.548 34.176V90.144C258.548 91.808 257.972 93.216 256.82 94.368C255.732 95.456 254.356 96 252.692 96C251.796 96 250.9 95.872 250.004 95.616C249.172 95.296 248.564 94.88 248.18 94.368L212.948 49.632V90.624C212.948 92.16 212.436 93.44 211.412 94.464C210.452 95.488 209.172 96 207.572 96C206.036 96 204.788 95.488 203.828 94.464C202.868 93.44 202.388 92.16 202.388 90.624V34.656C202.388 32.992 202.932 31.616 204.02 30.528C205.172 29.376 206.58 28.8 208.244 28.8C209.204 28.8 210.132 28.992 211.028 29.376C211.988 29.76 212.692 30.272 213.14 30.912L248.083 75.456V34.176C248.083 32.64 248.564 31.36 249.524 30.336C250.548 29.312 251.828 28.8 253.364 28.8ZM284.981 90.144C284.981 91.808 284.373 93.216 283.157 94.368C281.941 95.456 280.533 96 278.933 96C277.205 96 275.765 95.456 274.613 94.368C273.525 93.216 272.981 91.808 272.981 90.144V34.656C272.981 32.992 273.557 31.616 274.709 30.528C275.861 29.376 277.333 28.8 279.125 28.8C280.725 28.8 282.101 29.376 283.253 30.528C284.405 31.616 284.981 32.992 284.981 34.656V90.144ZM348.475 28.608C350.075 28.608 351.451 29.152 352.603 30.24C353.819 31.328 354.427 32.64 354.427 34.176C354.427 35.008 354.235 35.872 353.851 36.768L330.139 92.256C329.563 93.472 328.763 94.4 327.739 95.04C326.715 95.68 325.627 96 324.475 96C323.387 95.936 322.363 95.616 321.403 95.04C320.507 94.4 319.803 93.504 319.291 92.352L295.579 36.672C295.259 36.032 295.099 35.232 295.099 34.272C295.099 32.544 295.739 31.168 297.019 30.144C298.299 29.056 299.611 28.512 300.955 28.512C302.043 28.512 303.067 28.832 304.027 29.472C304.987 30.112 305.723 31.04 306.235 32.256L325.531 77.664L343.195 32.256C343.707 31.104 344.443 30.208 345.403 29.568C346.363 28.928 347.387 28.608 348.475 28.608ZM402.497 84.96C404.161 84.96 405.537 85.536 406.625 86.688C407.777 87.776 408.353 89.056 408.353 90.528C408.353 92.128 407.777 93.44 406.625 94.464C405.537 95.488 404.161 96 402.497 96H370.337C368.673 96 367.265 95.456 366.113 94.368C365.025 93.216 364.481 91.808 364.481 90.144V34.656C364.481 32.992 365.025 31.616 366.113 30.528C367.265 29.376 368.673 28.8 370.337 28.8H402.497C404.161 28.8 405.537 29.344 406.625 30.432C407.777 31.456 408.353 32.8 408.353 34.464C408.353 36.064 407.809 37.376 406.721 38.4C405.633 39.36 404.225 39.84 402.497 39.84H376.481V56.16H398.177C399.841 56.16 401.217 56.704 402.305 57.792C403.457 58.816 404.033 60.16 404.033 61.824C404.033 63.424 403.489 64.736 402.401 65.76C401.313 66.72 399.905 67.2 398.177 67.2H376.481V84.96H402.497ZM472.123 86.592C472.955 87.104 473.595 87.776 474.043 88.608C474.555 89.44 474.811 90.304 474.811 91.2C474.811 92.352 474.427 93.408 473.659 94.368C472.699 95.52 471.227 96.096 469.243 96.096C467.707 96.096 466.299 95.744 465.019 95.04C460.411 92.416 458.107 87.072 458.107 79.008C458.107 76.704 457.339 74.88 455.803 73.536C454.331 72.192 452.187 71.52 449.371 71.52H431.419V90.144C431.419 91.872 430.939 93.28 429.979 94.368C429.083 95.456 427.867 96 426.331 96C424.475 96 422.843 95.456 421.435 94.368C420.091 93.216 419.419 91.808 419.419 90.144V34.656C419.419 32.992 419.963 31.616 421.051 30.528C422.203 29.376 423.611 28.8 425.275 28.8H452.923C456.251 28.8 459.387 29.696 462.331 31.488C465.275 33.28 467.611 35.744 469.339 38.88C471.131 42.016 472.027 45.536 472.027 49.44C472.027 52.64 471.163 55.776 469.435 58.848C467.707 61.856 465.467 64.256 462.715 66.048C466.747 68.864 468.955 72.64 469.339 77.376C469.531 78.4 469.627 79.392 469.627 80.352C469.883 82.336 470.139 83.776 470.395 84.672C470.651 85.504 471.227 86.144 472.123 86.592ZM452.443 61.632C453.595 61.632 454.715 61.088 455.803 60C456.891 58.912 457.787 57.472 458.491 55.68C459.195 53.824 459.547 51.84 459.547 49.728C459.547 47.936 459.195 46.304 458.491 44.832C457.787 43.296 456.891 42.08 455.803 41.184C454.715 40.288 453.595 39.84 452.443 39.84H431.419V61.632H452.443ZM506.925 96.96C502.317 96.96 498.221 96.384 494.637 95.232C491.053 94.08 487.693 92.128 484.557 89.376C482.829 87.84 481.965 86.144 481.965 84.288C481.965 82.816 482.509 81.536 483.597 80.448C484.685 79.296 485.997 78.72 487.533 78.72C488.749 78.72 489.837 79.104 490.797 79.872C493.357 81.984 495.853 83.52 498.285 84.48C500.717 85.44 503.597 85.92 506.925 85.92C510.509 85.92 513.581 85.12 516.141 83.52C518.765 81.92 520.077 79.936 520.077 77.568C520.077 74.688 518.797 72.448 516.237 70.848C513.677 69.184 509.613 67.936 504.045 67.104C490.029 65.056 483.021 58.528 483.021 47.52C483.021 43.488 484.077 40 486.189 37.056C488.301 34.048 491.181 31.776 494.829 30.24C498.477 28.64 502.541 27.84 507.021 27.84C511.053 27.84 514.829 28.448 518.349 29.664C521.933 30.88 524.909 32.48 527.277 34.464C529.133 35.936 530.061 37.632 530.061 39.552C530.061 41.024 529.517 42.336 528.429 43.488C527.341 44.576 526.061 45.12 524.589 45.12C523.629 45.12 522.765 44.832 521.997 44.256C520.333 42.912 517.997 41.696 514.989 40.608C512.045 39.456 509.389 38.88 507.021 38.88C502.989 38.88 499.853 39.648 497.613 41.184C495.437 42.656 494.349 44.608 494.349 47.04C494.349 49.792 495.469 51.872 497.709 53.28C500.013 54.688 503.597 55.84 508.461 56.736C513.965 57.696 518.349 58.944 521.613 60.48C524.941 61.952 527.437 64 529.101 66.624C530.765 69.184 531.597 72.608 531.597 76.896C531.597 80.928 530.445 84.48 528.141 87.552C525.901 90.56 522.893 92.896 519.117 94.56C515.341 96.16 511.277 96.96 506.925 96.96ZM612.36 28.8C614.088 28.8 615.496 29.312 616.584 30.336C617.672 31.36 618.216 32.704 618.216 34.368C618.216 36.032 617.672 37.376 616.584 38.4C615.496 39.36 614.088 39.84 612.36 39.84H597.288V90.144C597.288 91.808 596.68 93.216 595.464 94.368C594.248 95.456 592.744 96 590.952 96C589.16 96 587.688 95.456 586.536 94.368C585.384 93.216 584.808 91.808 584.808 90.144V39.84H569.736C568.008 39.84 566.6 39.328 565.512 38.304C564.424 37.28 563.88 35.936 563.88 34.272C563.88 32.672 564.424 31.36 565.512 30.336C566.664 29.312 568.072 28.8 569.736 28.8H612.36ZM677.807 34.464C677.807 35.744 677.455 36.928 676.751 38.016L656.687 66.72V90.144C656.687 91.808 656.143 93.216 655.055 94.368C653.967 95.456 652.655 96 651.119 96C649.519 96 648.143 95.456 646.991 94.368C645.903 93.216 645.359 91.808 645.359 90.144V65.376L625.391 38.88C624.239 37.344 623.663 35.84 623.663 34.368C623.663 32.704 624.303 31.328 625.583 30.24C626.927 29.088 628.335 28.512 629.807 28.512C631.599 28.512 633.167 29.408 634.511 31.2L651.407 54.528L667.247 31.392C668.591 29.472 670.191 28.512 672.047 28.512C673.583 28.512 674.927 29.088 676.079 30.24C677.231 31.392 677.807 32.8 677.807 34.464Z" fill="#8B9DF9"/>
</g>
<defs>
<clipPath id="clip0_236_30">
<rect width="680" height="120" fill="white"/>
</clipPath>
</defs>
</svg>
